<?xml version="1.0" encoding="UTF-8" standalone="no"?>
<!-- Author: Lorenz Lo Sauer (CC-BY-SA 3.0) -->
<svg
   xmlns:dc="http://purl.org/dc/elements/1.1/"
   xmlns:cc="http://creativecommons.org/ns#"
   xmlns:rdf="http://www.w3.org/1999/02/22-rdf-syntax-ns#"
   xmlns:svg="http://www.w3.org/2000/svg"
   xmlns="http://www.w3.org/2000/svg"
   version="1.1"
   id="svg3458"
   viewBox="0 0 744.09448819 1052.3622047"
   height="297mm"
   width="210mm">
  <defs
     id="defs3460">
    <filter
       style="color-interpolation-filters:sRGB"
       id="filter3585">
      <feBlend
         mode="normal"
         id="feBlend3587"
         in2="SourceGraphic" />
    </filter>
    <filter
       id="filter4202"
       style="color-interpolation-filters:sRGB;">
      <feOffset
         id="feOffset4204"
         dx="3"
         dy="3" />
      <feGaussianBlur
         id="feGaussianBlur4206"
         result="blur"
         stdDeviation="3" />
      <feFlood
         id="feFlood4208"
         result="flood"
         flood-opacity="1"
         flood-color="rgb(0,0,0)" />
      <feComposite
         id="feComposite4210"
         result="composite"
         operator="in"
         in2="SourceGraphic"
         in="flood" />
      <feBlend
         id="feBlend4212"
         mode="normal"
         in2="composite"
         in="blur" />
    </filter>
  </defs>
  <metadata
     id="metadata3463">
    <rdf:RDF>
      <cc:Work
         rdf:about="">
        <dc:format>image/svg+xml</dc:format>
        <dc:type
           rdf:resource="http://purl.org/dc/dcmitype/StillImage" />
        <dc:title></dc:title>
      </cc:Work>
    </rdf:RDF>
  </metadata>
  <g
     id="layer1">
    <g
       style="filter:url(#filter4202)"
       transform="translate(-55.289038,64.296682)"
       id="layer1-8">
      <text
         xml:space="preserve"
         style="font-style:normal;font-weight:normal;font-size:37.46541214px;line-height:125%;font-family:sans-serif;letter-spacing:0px;word-spacing:0px;fill:#000000;fill-opacity:1;stroke:none;stroke-width:1px;stroke-linecap:butt;stroke-linejoin:miter;stroke-opacity:1"
         x="214.7805"
         y="295.57767"
         id="text3355"
         transform="scale(1.0676514,0.93663531)"><tspan
           id="tspan3357"
           x="214.7805"
           y="295.57767"
           style="font-style:normal;font-variant:normal;font-weight:bold;font-stretch:normal;font-size:112.5px;font-family:Consolas;-inkscape-font-specification:'Consolas Bold'">T<tspan
   style="font-size:50px"
   id="tspan3481">in</tspan></tspan></text>
      <text
         xml:space="preserve"
         style="font-style:normal;font-weight:normal;font-size:37.9233284px;line-height:125%;font-family:sans-serif;letter-spacing:0px;word-spacing:0px;fill:#000000;fill-opacity:1;stroke:none;stroke-width:1px;stroke-linecap:butt;stroke-linejoin:miter;stroke-opacity:1"
         x="448.54379"
         y="127.02553"
         id="text3355-3"
         transform="scale(1.0547597,0.94808324)"><tspan
           id="tspan3357-9"
           x="448.54379"
           y="127.02553"
           style="font-style:normal;font-variant:normal;font-weight:bold;font-stretch:normal;font-size:112.5px;font-family:Consolas;-inkscape-font-specification:'Consolas Bold'">T<tspan
   style="font-size:50px"
   id="tspan3479">out</tspan></tspan></text>
      <g
         id="g3515">
        <g
           id="g3581"
           transform="matrix(0.91121543,0,0,1,55.233483,0)">
          <path
             style="fill:#000000;stroke:none"
             d="m 393.80194,131.1444 c -14.96401,-14.83863 -43.55575,-29.94653 -71.15113,-37.469141 -14.77409,-4.012773 -36.03799,-8.184738 -48.53132,-9.49128 -4.6477,-0.499046 -9.55113,-1.479408 -10.80887,-2.260344 -1.70968,-0.99707 -2.38237,-6.704174 -2.61853,-21.106568 -0.39026,-10.885799 -0.75534,-19.820738 -1.15618,-19.940568 -0.40079,-0.119843 -4.85718,2.596156 -9.95332,6.011561 -5.09612,3.415396 -27.51053,18.332344 -49.92492,33.249269 -22.61479,14.85702 -41.95878,27.939061 -43.39168,29.049031 -2.26884,2.07459 -1.16034,2.89188 49.74637,33.98381 28.67233,17.48014 52.91069,31.69116 53.90848,31.66563 0.99777,-0.0256 1.68585,-8.5646 1.63677,-20.07708 -0.28731,-14.49866 0.33631,-20.30402 1.97802,-20.70379 4.02968,-0.98129 30.00993,1.28114 43.26632,3.70653 16.7101,3.21517 31.59911,8.3959 41.71221,14.73964 7.04334,4.37325 8.56106,5.96061 12.19276,12.79544 5.06392,9.53024 55.25452,-4.87787 50.63908,4.83501 1.17547,-0.77403 16.93101,0.0376 -17.54406,-38.98715 z"
             id="path3342" />
          <path
             style="fill:#000000;stroke:none"
             d="m 383.93131,199.27235 c 14.96401,14.83863 43.55575,29.94653 71.15113,37.46914 14.77409,4.01277 36.03799,8.18474 48.53132,9.49128 4.6477,0.49905 9.55113,1.47941 10.80887,2.26034 1.70968,0.99707 2.38237,6.70418 2.61853,21.10658 0.39026,10.8858 0.75534,19.82074 1.15618,19.94057 0.40079,0.11984 4.85718,-2.59616 9.95332,-6.01157 5.09612,-3.41539 27.51053,-18.33234 49.92492,-33.24927 22.61479,-14.85702 41.95878,-27.93906 43.39168,-29.04903 2.26884,-2.07459 1.16034,-2.89188 -49.74637,-33.9838 -28.67233,-17.48014 -52.91069,-31.69116 -53.90848,-31.66563 -0.99777,0.0256 -1.68585,8.5646 -1.63677,20.07708 0.28731,14.49866 -0.33631,20.30401 -1.97802,20.70378 -4.02968,0.98129 -30.00993,-1.28114 -43.26632,-3.70652 -16.7101,-3.21517 -31.59911,-8.3959 -41.71221,-14.73964 -7.04334,-4.37325 -8.56106,-5.96061 -12.19276,-12.79544 -5.06392,-9.53024 -55.25452,4.87787 -50.63908,-4.83501 -1.17547,0.77403 -16.93101,-0.0376 17.54406,38.98714 z"
             id="path3342-7" />
        </g>
      </g>
    </g>
  </g>
</svg>
